<svg width="800" height="500" viewBox="0 0 800 500" fill="none" xmlns="http://www.w3.org/2000/svg">
  <rect width="800" height="500" fill="#F4F4F5"/>
  <rect x="300" y="175" width="200" height="150" rx="8" fill="#E4E4E7"/>
  <path d="M400 210C410.493 210 419 218.507 419 229C419 239.493 410.493 248 400 248C389.507 248 381 239.493 381 229C381 218.507 389.507 210 400 210Z" fill="#A1A1AA"/>
  <path d="M330 290L355 265C358.314 261.686 363.686 261.686 367 265L400 298L430 268C433.314 264.686 438.686 264.686 442 268L470 296V290C470 283.373 464.627 278 458 278H342C335.373 278 330 283.373 330 290Z" fill="#A1A1AA"/>
</svg>
